HIERARCHY
ROOT Hips
{
  OFFSET -32.5998 29.0326 120.673
  CHANNELS 6 Xposition Yposition Zposition Zrotation Xrotation Yrotation
  JOINT LeftUpLeg
  {
    OFFSET 8.64259 1.95398 -2.38835
    CHANNELS 3 Zrotation Xrotation Yrotation
    JOINT LeftLeg
    {
      OFFSET 43.7702 0 0
      CHANNELS 3 Zrotation Xrotation Yrotation
      JOINT LeftFoot
      {
        OFFSET 40.6238 0 0
        CHANNELS 3 Zrotation Xrotation Yrotation
        JOINT LeftToeBase
        {
          OFFSET 12.7242 0 0
          CHANNELS 3 Zrotation Xrotation Yrotation
          End Site
          {
            OFFSET 0 0 0
          }
        }
      }
    }
  }
  JOINT RightUpLeg
  {
    OFFSET -8.2249 1.95398 -2.59336
    CHANNELS 3 Zrotation Xrotation Yrotation
    JOINT RightLeg
    {
      OFFSET 43.5653 0 0
      CHANNELS 3 Zrotation Xrotation Yrotation
      JOINT RightFoot
      {
        OFFSET 40.6238 0 0
        CHANNELS 3 Zrotation Xrotation Yrotation
        JOINT RightToeBase
        {
          OFFSET 12.7242 0 0
          CHANNELS 3 Zrotation Xrotation Yrotation
          End Site
          {
            OFFSET 0 0 0
          }
        }
      }
    }
  }
  JOINT Spine
  {
    OFFSET 0.165834 0.87714 6.61349
    CHANNELS 3 Zrotation Xrotation Yrotation
    JOINT Spine1
    {
      OFFSET 7.38963 1.71661e-005 0
      CHANNELS 3 Zrotation Xrotation Yrotation
      JOINT Spine2
      {
        OFFSET 11.9445 1.14441e-005 0
        CHANNELS 3 Zrotation Xrotation Yrotation
        JOINT Spine3
        {
          OFFSET 14.7254 4.19617e-005 0
          CHANNELS 3 Zrotation Xrotation Yrotation
          JOINT Spine4
          {
            OFFSET 10.9679 0 0
            CHANNELS 3 Zrotation Xrotation Yrotation
            JOINT RightShoulder
            {
              OFFSET 2.46616 -1.6653 3.69651
              CHANNELS 3 Zrotation Xrotation Yrotation
              JOINT RightArm
              {
                OFFSET 13.0012 0 0
                CHANNELS 3 Zrotation Xrotation Yrotation
                JOINT RightForeArm
                {
                  OFFSET 28.7848 1.62311e-005 0
                  CHANNELS 3 Zrotation Xrotation Yrotation
                  JOINT RightHand
                  {
                    OFFSET 26.5688 1.62095e-005 0
                    CHANNELS 3 Zrotation Xrotation Yrotation
                    End Site
                    {
                      OFFSET 0 0 0
                    }
                  }
                }
              }
            }
            JOINT LeftShoulder
            {
              OFFSET 2.38034 -1.29275 -3.7523
              CHANNELS 3 Zrotation Xrotation Yrotation
              JOINT LeftArm
              {
                OFFSET 16.3182 6.07031e-005 0
                CHANNELS 3 Zrotation Xrotation Yrotation
                JOINT LeftForeArm
                {
                  OFFSET 27.0901 0 0
                  CHANNELS 3 Zrotation Xrotation Yrotation
                  JOINT LeftHand
                  {
                    OFFSET 24.5451 1.51738e-005 0
                    CHANNELS 3 Zrotation Xrotation Yrotation
                    End Site
                    {
                      OFFSET 0 0 0
                    }
                  }
                }
              }
            }
            JOINT Neck
            {
              OFFSET 5.0226 -0.0266342 0
              CHANNELS 3 Zrotation Xrotation Yrotation
              JOINT Head
              {
                OFFSET 6.69364 2.86102e-005 0
                CHANNELS 3 Zrotation Xrotation Yrotation
                End Site
                {
                  OFFSET 0 0 0
                }
              }
            }
          }
        }
      }
    }
  }
}
MOTION
Frames:	10
Frame Time:	0.0416667
-278.361 91.6457 261.874 112.435 57.8048 76.4941 -154.48 -34.3678 113.331 -7.4787 30.3039 0.551509 81.4496 14.7141 -1.74183 26.661 -7.44315 14.4526 172.404 13.1816 94.5423 -34.5901 1.63882 3.28494 74.001 1.69538 2.36876 19.0436 3.96495 1.51256 -1.79955 8.18754 -90.588 10.4882 -3.85434 -0.826236 -1.1772 -3.88694 -0.655563 -23.7484 -3.42765 -1.9476 -3.73574 -3.42766 -1.9476 91.839 -26.9228 -104.16 38.0456 2.78863 -8.83095 -14.9983 5.99786 -78.9933 0.544248 -0.0164025 -4.55746 -89.0446 -47.108 79.5653 -28.4629 3.24293 -18.2522 -74.0164 -31.7149 -87.4251 35.1983 -15.0828 -46.6758 5.0857 -0.164347 -6.23066 -7.71469 0.949987 0.878154 
-272.664 92.8077 255.543 109.855 51.3782 78.4576 -166.164 -35.4117 100.675 -15.1892 19.8308 1.99794 54.1074 0.985911 0.804049 27.7437 -1.26868 1.80564 170.61 9.18284 92.6183 -37.0425 -7.56728 5.31026 75.1996 -5.23813 -0.232011 17.474 4.13927 2.98222 -1.02977 8.0685 -90.5612 10.7278 -2.30922 -0.903262 -0.94142 -2.34675 -0.800723 -23.4859 -1.93102 -1.55566 -3.47329 -1.93101 -1.55567 91.6787 -25.9557 -104.858 39.0959 2.63709 -7.74322 -16.1607 5.7602 -78.9371 0.988415 -0.0164056 -4.41874 -89.2286 -46.9462 79.2459 -28.9849 9.48024 -15.0804 -16.3564 -22.282 -67.2344 4.83173 0.522836 -9.76815 4.78654 0.0273825 -4.48718 -7.53692 0.821224 0.532699 
-267.593 94.5331 250.611 103.954 43.9435 84.2602 -168.713 -7.88636 97.374 -50.6627 13.3951 1.6328 58.7803 -1.01408 0.0776523 7.76341 -9.6072 0.477141 172.815 3.61084 94.5608 -29.5342 -13.9485 3.14168 73.5414 -7.55101 -2.25845 20.8245 3.40607 0.766414 0.138862 7.84513 -90.6619 11.1815 -0.031207 -1.31482 -0.490061 -0.0890506 -1.31218 -23.0203 0.365364 -1.26342 -3.00769 0.365352 -1.26342 91.3843 -25.4379 -105.685 39.9995 3.37078 -8.79636 -18.0448 5.06184 -79.0089 2.36849 -0.0203642 -4.87643 -88.9918 -47.6898 79.7686 -26.7193 9.66081 -16.214 -18.1413 -22.1275 -63.8869 1.81497 -0.03398 -4.86692 3.43756 -0.0718311 -2.58461 -6.51551 0.348683 0.664885 
-262.715 96.3172 248.541 99.0268 35.9073 89.091 -165.673 8.81748 97.8853 -54.726 5.29816 -1.77447 70.2844 5.04855 1.83155 10.9462 -10.4584 4.2352 177.917 -1.39686 98.0617 -19.4242 -15.385 -0.777821 70.4294 -7.00477 -0.503352 21.4701 2.79775 1.71561 1.47313 7.59428 -90.736 11.7046 2.58473 -1.73824 0.0347606 2.50577 -1.85034 -22.5169 2.98756 -0.880661 -2.50421 2.98754 -0.880668 91.6143 -25.5063 -105.164 40.5602 3.19369 -10.6166 -15.6936 5.24084 -77.454 -1.46162 -0.0592942 -3.27332 -88.7646 -47.5465 80.0892 -26.4527 7.61654 -16.7195 -17.2407 -20.2666 -64.0872 -1.74878 -0.113957 -2.73389 1.39365 -0.285706 -0.281925 -6.13256 -0.221625 -0.57519 
-257.311 96.605 244.633 96.5977 30.3344 90.3788 -166.803 19.9034 96.4236 -38.3936 -6.77338 -4.22486 73.1596 5.30421 -3.68624 12.1008 -12.8942 8.93468 179.482 -7.11296 97.9919 -13.7735 -17.5896 -3.3941 70.6546 -7.42462 1.29202 22.783 2.13791 1.95466 2.27601 7.53685 -90.6761 11.8386 4.20824 -1.79674 0.172954 4.12512 -1.98045 -22.4158 4.55332 -0.446577 -2.40314 4.55333 -0.446573 91.8541 -23.6147 -105.394 41.3759 1.07792 -12.8551 -15.0878 5.60166 -77.1952 -1.68647 -0.043591 -3.36537 -88.6418 -48.7531 80.5185 -24.1004 5.26186 -16.5002 -15.8808 -18.0981 -65.3845 -3.34111 -0.120273 -0.852702 2.17925 0.197001 3.07867 -5.58585 -0.282866 -0.538265 
-251.189 95.2668 237.643 97.0335 27.9441 88.0317 -171.443 19.0026 94.612 -12.4342 -6.58116 -3.63065 66.7707 2.83526 -1.96126 18.8494 -8.15689 7.33644 174.884 -13.8006 91.9469 -13.9868 -24.3394 -3.98391 75.4718 -10.4838 0.434667 24.5424 2.12163 -0.640271 2.57007 7.72981 -90.3901 11.4491 4.93147 -1.27798 -0.213374 4.87044 -1.49426 -22.8239 5.08698 0.267053 -2.81123 5.08698 0.267049 90.4848 -25.3203 -107.661 37.339 -0.545204 -14.3946 -12.7895 6.72575 -78.4453 -3.62514 -0.06544 -3.61043 -88.4267 -49.5331 80.9872 -20.2981 4.75392 -14.9007 -22.051 -18.2573 -71.1308 -1.88319 -0.0833314 -3.03056 3.144 0.517598 4.48912 -5.53569 -0.236673 -0.0811631 
-243.956 93.1818 229.825 99.5535 26.0719 83.363 -173.348 18.1044 91.521 -10.6094 -9.32997 -2.76307 64.2076 0.444321 -2.96913 14.0502 -10.0978 6.25971 167.565 -19.843 81.9345 -18.2647 -30.6133 -4.94653 79.0424 -13.526 -1.19087 29.1615 0.0965137 -1.2208 2.58372 8.0757 -90.124 10.7507 5.08799 -0.712087 -0.910548 5.0517 -0.935892 -23.5252 5.06614 0.854043 -3.51257 5.06614 0.854038 90.3244 -24.1045 -108.527 36.6278 -1.56782 -16.6407 -14.9784 6.28774 -78.129 -1.97502 -0.0504317 -3.22134 -88.7038 -54.1502 81.4438 -18.7273 -0.573139 -14.1734 -20.8284 -15.4561 -72.8843 -2.57602 -0.09568 -1.59847 3.06442 1.12682 7.43211 -4.48666 -0.107117 -1.31492 
-236.052 92.9137 221.099 99.1763 27.2846 81.4735 -171.101 20.9955 88.8126 -25.1938 0.051053 -5.86 61.2791 -1.53879 -2.10934 8.61139 -12.6633 5.53999 167.218 -19.8454 79.2204 -27.519 -28.5859 -8.24714 69.4293 -6.48589 -3.42947 42.7211 -6.43561 3.82422 2.29145 7.87341 -89.6917 11.1316 4.70413 0.153399 -0.530772 4.70631 -0.0542612 -23.129 4.44009 1.56291 -3.11633 4.4401 1.56291 89.9109 -26.3043 -108.447 38.623 -1.73338 -15.4325 -16.4897 5.78059 -77.5467 -0.399999 -0.023651 -3.42304 -88.4589 -50.4565 81.1163 -24.4507 -3.99982 -10.6146 -18.777 -13.4529 -73.3821 -3.42841 -0.121464 -1.02149 4.28735 0.677911 2.03674 -5.64812 0.283035 1.25407 
-228.808 94.0813 213.197 98.1481 30.5348 80.9914 -170.389 17.5643 85.7124 -29.4937 3.9171 -5.95046 66.9148 3.2935 0.769128 11.0652 -9.58913 2.92883 173.781 -8.03128 82.4801 -51.8578 -22.6995 -9.73339 56.7014 3.33553 -0.058418 20.2381 1.85287 6.22175 1.61346 7.65687 -89.6175 11.558 3.3888 0.413443 -0.108537 3.40374 0.263708 -22.6742 3.10774 1.41374 -2.66156 3.10774 1.41374 90.4092 -24.523 -108.163 41.1013 -1.89211 -13.0484 -15.837 5.86973 -77.2895 -2.77735 -0.0809248 -2.25582 -88.4435 -50.8897 81.2249 -24.8441 -3.73089 -8.01849 -17.4778 -12.9772 -73.5251 -1.79308 -0.0721058 -0.724553 5.72412 0.899772 2.5976 -6.70915 0.420387 -0.910975 
-222.326 95.3702 206.514 98.0701 30.6239 81.9005 -171.79 10.7354 84.2054 -28.969 2.21599 -5.0079 72.7694 6.75986 0.756282 11.797 -9.84263 3.92273 179.423 4.49301 86.5807 -65.5452 -21.8658 -8.69528 61.4902 -0.237176 -2.17095 23.3769 0.238408 7.44449 1.14675 7.67752 -89.7376 11.518 2.4042 0.276671 -0.150698 2.41404 0.170527 -22.7013 2.20984 0.986781 -2.6886 2.20984 0.986775 90.8969 -24.0918 -107.299 40.4492 -2.87871 -13.6984 -16.9231 5.91707 -76.6767 0.249261 -0.0148748 -3.7602 -88.0486 -49.7688 81.6084 -25.0186 -0.424982 -8.95855 -19.0564 -14.2655 -73.8762 -1.80858 -0.0745182 -1.55934 5.69594 1.39494 1.10841 -6.82036 1.18958 -1.12731 
